#!OML:ASF F:\VICON\USERDATA\INSTALL\Justin_Nancy\Justin_Nancy.ASF
:FULLY-SPECIFIED
:DEGREES
95
root 1.34302 16.0022 8.06953 -11.8432 -0.446012 1.46099
lowerback 14.0888 1.13566 -1.3488
upperback 1.82579 1.40395 1.61678
thorax -6.04253 0.736733 2.20403
lowerneck -20.0415 -5.79827 -10.2452
upperneck 15.8833 -6.75369 8.72944
head 8.92585 -2.89496 3.73642
rclavicle -1.44119e-015 -6.36111e-015
rhumerus -33.4597 4.34421 -89.5216
rradius 102.419
rwrist -2.23584
rhand -15.2248 21.319
rfingers 7.12502
rthumb 10.9479 -8.37556
lclavicle -1.44119e-015 -6.36111e-015
lhumerus -52.6418 -8.94517 90.3665
lradius 84.0741
lwrist 22.7821
lhand -16.8219 10.377
lfingers 7.12502
lthumb 9.40722 40.1471
rfemur -13.0225 -0.099014 19.6727
rtibia 88.3977
rfoot -7.72035 -7.82357
rtoes -3.12714
lfemur -27.6612 -1.11776 -22.8409
ltibia 49.088
lfoot -6.65476 -3.82327
ltoes -0.813744
96
root 1.35509 16.0213 8.30299 -11.8627 -0.783635 1.28978
lowerback 13.9908 1.23712 -0.934036
upperback 1.91395 1.59855 1.57892
thorax -5.8921 0.820554 1.89343
lowerneck -19.6166 -5.78985 -10.0145
upperneck 15.551 -6.73443 8.2754
head 8.70966 -2.92998 3.54564
rclavicle -2.33572e-015 -8.74653e-015
rhumerus -33.9375 3.13513 -89.6129
rradius 99.8794
rwrist -1.67419
rhand -15.7279 19.8647
rfingers 7.12502
rthumb 10.4627 -9.85493
lclavicle -2.33572e-015 -8.74653e-015
lhumerus -50.6096 -9.12656 89.9289
lradius 82.5639
lwrist 21.8165
lhand -17.6845 10.268
lfingers 7.12502
lthumb 8.57481 40.0739
rfemur -14.4002 -0.143373 19.8735
rtibia 88.9202
rfoot -8.45061 -8.24405
rtoes -2.12646
lfemur -27.1847 -0.922075 -22.7073
ltibia 50.0527
lfoot -7.95403 -3.3835
ltoes -1.94536
97
root 1.36945 16.0516 8.52876 -11.8137 -0.900838 1.35591
lowerback 13.9754 1.23613 -0.789881
upperback 1.84773 1.61457 1.4991
thorax -5.94811 0.825005 1.72414
lowerneck -19.5064 -5.75845 -9.89681
upperneck 15.9045 -6.67431 7.87723
head 8.78521 -2.93852 3.40139
rclavicle 5.41688e-015 3.18055e-015
rhumerus -34.5395 2.18176 -89.6489
rradius 97.2032
rwrist -1.14669
rhand -16.0887 18.8408
rfingers 7.12502
rthumb 10.1146 -10.8961
lclavicle 5.41688e-015 3.18055e-015
lhumerus -48.9158 -8.88647 89.4929
lradius 81.1498
lwrist 21.4109
lhand -18.412 8.96754
lfingers 7.12502
lthumb 7.87274 38.8009
rfemur -15.8469 -0.357939 19.6741
rtibia 89.2053
rfoot -8.92208 -8.35795
rtoes -1.16969
lfemur -26.6469 -0.927643 -22.853
ltibia 50.7983
lfoot -9.2653 -3.03958
ltoes -2.60796
98
root 1.37717 16.0674 8.75208 -11.7819 -0.923339 1.37302
lowerback 14.0275 1.16047 -0.746554
upperback 1.75293 1.52134 1.49245
thorax -6.07264 0.779331 1.70896
lowerneck -19.4267 -5.58811 -10.1408
upperneck 16.3892 -6.41889 7.93982
head 8.92318 -2.83022 3.50545
rclavicle -1.63997e-015 -6.36111e-015
rhumerus -35.1871 1.55768 -89.6276
rradius 94.4157
rwrist -0.743567
rhand -16.6111 18.0593
rfingers 7.12502
rthumb 9.6106 -11.7014
lclavicle -1.63997e-015 -6.36111e-015
lhumerus -47.4715 -8.24423 89.0994
lradius 79.9348
lwrist 21.1875
lhand -18.7101 8.58007
lfingers 7.12502
lthumb 7.58494 38.4241
rfemur -17.2477 -0.645763 19.5782
rtibia 89.349
rfoot -9.58749 -8.38754
rtoes -1.5098
lfemur -25.874 -1.00922 -22.9393
ltibia 50.9524
lfoot -10.1738 -2.62823
ltoes -2.20947
99
root 1.37713 16.0866 8.97301 -11.5595 -0.642195 1.51481
lowerback 13.8352 1.00462 -0.957833
upperback 1.66587 1.28194 1.45966
thorax -6.05348 0.667306 1.84149
lowerneck -19.4911 -5.41567 -10.3389
upperneck 16.8683 -6.16344 8.02886
head 9.08375 -2.71382 3.61075
rclavicle -1.85118e-014 -1.03368e-014
rhumerus -35.8196 1.24198 -89.5456
rradius 91.5661
rwrist -0.582312
rhand -16.9937 17.0367
rfingers 7.12502
rthumb 9.24143 -12.7407
lclavicle -1.85118e-014 -1.03368e-014
lhumerus -45.9433 -7.33278 88.7118
lradius 78.7811
lwrist 21.1938
lhand -17.9775 8.35817
lfingers 7.12502
lthumb 8.29202 38.1754
rfemur -18.6717 -1.27708 19.3547
rtibia 89.1764
rfoot -10.2071 -8.48117
rtoes -3.94289
lfemur -25.4042 -1.25859 -23.2446
ltibia 51.0922
lfoot -10.8564 -2.38316
ltoes -2.79432
100
root 1.43774 16.111 9.16775 -10.5518 1.15929 5.06682
lowerback 13.0896 0.676716 -3.82462
upperback 1.38989 0.361355 0.228816
thorax -5.90359 0.271701 2.3384
lowerneck -19.7478 -5.34172 -10.3811
upperneck 17.231 -6.02784 7.96296
head 9.23999 -2.65561 3.61591
rclavicle -1.00883e-014 2.38542e-015
rhumerus -36.2839 1.46615 -89.4628
rradius 88.5291
rwrist -0.983449
rhand -17.4756 16.0062
rfingers 7.12502
rthumb 8.77641 -13.7913
lclavicle -1.00883e-014 2.38542e-015
lhumerus -44.208 -6.38076 88.2369
lradius 77.516
lwrist 21.5758
lhand -16.3795 7.97072
lfingers 7.12502
lthumb 9.83406 37.7211
rfemur -20.7196 -3.51625 13.953
rtibia 89.0799
rfoot -11.3844 -6.95508
rtoes -6.06214
lfemur -25.3483 -2.69294 -27.98
ltibia 50.7829
lfoot -11.1626 -1.56449
ltoes -3.53485
101
root 1.39271 16.1606 9.41291 -11.0344 0.243979 2.99919
lowerback 13.1245 0.646336 -2.3271
upperback 1.64688 0.58125 0.927722
thorax -5.65829 0.345683 2.18912
lowerneck -20.0225 -5.19599 -10.2189
upperneck 17.463 -5.82224 7.80158
head 9.33786 -2.56102 3.56297
rclavicle 1.37658e-014 -1.59028e-015
rhumerus -35.7005 0.767278 -89.5109
rradius 85.7266
rwrist -1.02263
rhand -16.5443 14.5867
rfingers 7.12502
rthumb 9.67501 -15.1711
lclavicle 1.37658e-014 -1.59028e-015
lhumerus -42.6218 -5.25444 87.7485
lradius 76.4026
lwrist 22.1004
lhand -15.5907 8.05707
lfingers 7.12502
lthumb 10.595 37.77
rfemur -21.0898 -2.82565 17.2323
rtibia 88.0516
rfoot -11.4983 -8.08185
rtoes -5.85815
lfemur -24.0885 -1.87439 -25.3177
ltibia 50.9261
lfoot -12.0057 -1.59558
ltoes -3.51556
102
root 1.37245 16.1949 9.63434 -11.1325 -0.274564 2.19994
lowerback 13.1917 0.616197 -1.77105
upperback 1.67113 0.634919 1.1795
thorax -5.66993 0.362261 2.12995
lowerneck -19.9901 -5.02471 -10.0803
upperneck 17.5891 -5.63267 7.78231
head 9.35195 -2.4667 3.56373
rclavicle -2.28602e-015 -7.95139e-016
rhumerus -35.5174 0.456673 -89.4658
rradius 82.735
rwrist -1.52837
rhand -15.8877 13.9104
rfingers 7.12502
rthumb 10.3085 -15.8169
lclavicle -2.28602e-015 -7.95139e-016
lhumerus -41.4414 -4.11078 87.3412
lradius 75.7431
lwrist 22.8011
lhand -15.5608 9.28553
lfingers 7.12502
lthumb 10.6238 38.997
rfemur -22.3017 -2.49536 18.6153
rtibia 87.0195
rfoot -11.4878 -8.59701
rtoes -5.80384
lfemur -22.9982 -1.41833 -24.2457
ltibia 50.8437
lfoot -12.8312 -1.49115
ltoes -3.58559
103
root 1.36861 16.2232 9.84083 -10.937 -0.0494419 2.52108
lowerback 13.1817 0.476056 -2.19516
upperback 1.48054 0.379817 1.04983
thorax -5.8548 0.249343 2.27955
lowerneck -19.7244 -4.92764 -9.82651
upperneck 17.7727 -5.58123 7.64599
head 9.35097 -2.44682 3.48637
rclavicle -1.09332e-015 -3.18055e-015
rhumerus -35.6877 0.368789 -89.4183
rradius 79.7529
rwrist -1.92672
rhand -15.8023 13.4901
rfingers 7.12502
rthumb 10.3909 -16.2332
lclavicle -1.09332e-015 -3.18055e-015
lhumerus -40.3196 -2.92483 86.9832
lradius 74.9039
lwrist 23.339
lhand -16.6802 10.7838
lfingers 7.12502
lthumb 9.54393 40.5477
rfemur -23.5343 -2.99193 18.2981
rtibia 85.878
rfoot -11.7334 -8.86222
rtoes -6.77598
lfemur -22.3126 -1.5942 -24.6768
ltibia 50.9021
lfoot -13.6809 -1.27966
ltoes -3.27122
